<svg width="1200" height="760" viewBox="0 0 1200 760" fill="none" xmlns="http://www.w3.org/2000/svg" role="img" aria-labelledby="title desc">
  <title id="title">2bottles map scene</title>
  <desc id="desc">A stylized map with two users and a fair midpoint destination.</desc>
  <rect width="1200" height="760" rx="34" fill="#F1F8ED"/>
  <rect x="42" y="42" width="1116" height="676" rx="28" fill="#FFFFFF"/>
  <path d="M145 635C220 555 350 540 420 480C525 390 580 300 710 285C810 274 875 328 945 298C1000 274 1035 220 1058 186" stroke="#D0EFB1" stroke-width="64" stroke-linecap="round"/>
  <path d="M130 580C220 535 302 514 402 435C500 357 570 256 695 248C807 242 875 303 964 266C1030 239 1072 188 1095 153" stroke="#4D7298" stroke-width="22" stroke-linecap="round" stroke-dasharray="10 20"/>
  <circle cx="250" cy="520" r="32" fill="#1A2530"/>
  <circle cx="250" cy="520" r="56" fill="#1A2530" fill-opacity="0.12"/>
  <circle cx="870" cy="305" r="32" fill="#4D7298"/>
  <circle cx="870" cy="305" r="56" fill="#4D7298" fill-opacity="0.14"/>
  <circle cx="565" cy="400" r="44" fill="#D0EFB1"/>
  <path d="M565 334C604 334 636 365 636 404C636 455 565 530 565 530C565 530 494 455 494 404C494 365 526 334 565 334Z" fill="#2E4A63"/>
  <circle cx="565" cy="404" r="20" fill="#FFFFFF"/>
  <rect x="132" y="86" width="420" height="132" rx="20" fill="#FAFCF8" stroke="#E0E9E0"/>
  <text x="164" y="140" fill="#2E4A63" font-family="'DM Sans', sans-serif" font-size="34" font-weight="700">Fair midpoint computed</text>
  <text x="164" y="182" fill="#555555" font-family="'DM Sans', sans-serif" font-size="24">12 venue options nearby</text>
  <rect x="640" y="530" width="430" height="146" rx="20" fill="#FAFCF8" stroke="#E0E9E0"/>
  <text x="672" y="582" fill="#2E4A63" font-family="'DM Sans', sans-serif" font-size="34" font-weight="700">ETA sync active</text>
  <text x="672" y="624" fill="#555555" font-family="'DM Sans', sans-serif" font-size="24">You: 16m | Partner: 14m</text>
</svg>
